<svg xmlns="http://www.w3.org/2000/svg" viewBox="0 0 30 28">
  <path d="M14.954.892c1.454 2.536 2.784 4.857 4.18 7.292-.997.048-1.292.741-1.647 1.402-2.6 4.845-5.199 9.69-7.838 14.512-.563 1.029-.847 1.97.119 3.009H0C5.004 18.335 9.914 9.73 14.954.892Z"/>
  <path d="M20.683 27.045c.662-.984.232-1.797-.237-2.616-.95-1.656-1.883-3.321-2.819-4.985-.123-.218-.308-.545-.455-.857.28-.005.625 0 .845-.002 2.077-.01 4.156.007 6.233-.024.634-.01.968.233 1.273.794 1.147 2.108 2.361 4.181 3.546 6.269.237.42.457.85.764 1.421h-9.15Z"/>
</svg>
