<svg xmlns="http://www.w3.org/2000/svg" viewBox="0 0 24 24">
  <path fill="#FCB400" d="M10.88 2.45 2.22 6.03c-.48.2-.47.88.02 1.07l8.7 3.45c.7.28 1.48.28 2.18 0l8.64-3.45c.49-.2.5-.88.01-1.08l-8.7-3.57a2.97 2.97 0 0 0-2.19 0Z"/>
  <path fill="#18BFFF" d="m12.7 12.43 8.64-3.34c.38-.15.79.13.79.54v7.79c0 .24-.15.46-.37.55l-8.64 3.34a.58.58 0 0 1-.79-.54v-7.8c0-.24.15-.46.37-.54Z"/>
  <path fill="#F82B60" d="m11.31 12.85-2.57 1.24-.26.13-5.42 2.6a.58.58 0 0 1-.83-.52V9.68c0-.43.44-.71.83-.53l8.22 3.63c.03.01.03.05.03.07Z"/>
  <path fill="#BA1E45" d="m11.31 12.85-2.57 1.24-6.51-4.41c0-.43.44-.71.83-.53l8.22 3.63c.03.01.03.05.03.07Z" opacity=".28"/>
</svg>
