<svg xmlns="http://www.w3.org/2000/svg" viewBox="0 0 303 303" fill="none">
  <rect width="303" height="303" rx="32" fill="#FECF40"/>
  <g transform="translate(26 26) scale(.828)" fill="#1F1F1E">
    <path d="M166.362 110.96 166.312.722A152 152 0 0 0 116.257 4.13l33.605 105.857c1.897 5.958-5.355 10.557-9.937 6.31L53.261 36.193A152.4 152.4 0 0 0 21.939 72.955l110.499 58.452c15.393 8.141 33.924-3.022 33.924-20.447Z"/>
    <path d="m136.272 192.56.05 109.685A152 152 0 0 0 186.259 299l-33.487-105.466c-1.897-5.959 5.354-10.559 9.937-6.312l86.563 80.006a152.6 152.6 0 0 0 31.473-36.629l-110.55-58.468c-15.392-8.142-33.923 3.022-33.923 20.429Z"/>
    <path d="m186.777 140.371 80.268-86.854a152.5 152.5 0 0 0-36.76-31.442L171.67 132.901c-8.141 15.394 3.021 33.926 20.445 33.909l110.13-.05A152 152 0 0 0 298.972 116.685l-105.884 33.624c-5.959 1.897-10.558-5.354-6.311-9.938Z"/>
    <path d="m110.516 136.711-109.794.05A152 152 0 0 0 4.112 186.685l105.414-33.473c5.959-1.897 10.558 5.355 6.311 9.938L36.005 249.534a152.4 152.4 0 0 0 36.626 31.341l58.313-110.255c8.141-15.394-3.021-33.926-20.445-33.926Z"/>
  </g>
</svg>
