<svg xmlns="http://www.w3.org/2000/svg" viewBox="0 0 24 24">
  <path fill="#36C5F0" d="M5.15 14.15a2.15 2.15 0 1 1-2.15-2.15h2.15v2.15Zm1.08 0a2.15 2.15 0 0 1 4.3 0v5.38a2.15 2.15 0 0 1-4.3 0v-5.38Z"/>
  <path fill="#2EB67D" d="M9.85 5.15A2.15 2.15 0 1 1 12 3v2.15H9.85Zm0 1.08a2.15 2.15 0 0 1 0 4.3H4.47a2.15 2.15 0 0 1 0-4.3h5.38Z"/>
  <path fill="#ECB22E" d="M18.85 9.85A2.15 2.15 0 1 1 21 12h-2.15V9.85Zm-1.08 0a2.15 2.15 0 0 1-4.3 0V4.47a2.15 2.15 0 0 1 4.3 0v5.38Z"/>
  <path fill="#E01E5A" d="M14.15 18.85A2.15 2.15 0 1 1 12 21v-2.15h2.15Zm0-1.08a2.15 2.15 0 0 1 0-4.3h5.38a2.15 2.15 0 0 1 0 4.3h-5.38Z"/>
</svg>
